<svg xmlns="http://www.w3.org/2000/svg" width="167" height="43" fill="none"><path fill="#B3D5E6" d="M6.04 33.448c-1.856 0-3.168-.672-3.968-1.472v-.032c.32.128.8.224 1.28.224 2.272 0 4.288-1.024 4.288-4.544v-15.04c0-1.6-.608-2.752-1.76-3.52V9h7.328v.064c-.8.768-1.248 1.92-1.248 3.52v14.144c0 4.704-2.528 6.72-5.92 6.72Zm18.525-17.536c4.096-.096 6.752 2.72 7.232 7.68h-8.416v-.064l3.936-1.152c-.096-3.744-1.248-5.568-2.752-6.464Zm-3.808 6.72c0 5.536 2.016 8.224 6.4 8.192 1.312-.032 2.496-.256 3.744-.672v.032c-1.312 1.984-3.552 3.264-6.24 3.264-5.056 0-8.288-3.232-8.288-8.48.032-4 2.24-7.264 5.472-8.576-.736 1.344-1.088 3.648-1.088 6.24ZM35.275 33v-.064c.672-.64 1.024-1.632 1.024-2.976v-9.056c0-1.44-.544-2.496-1.376-2.944v-.064l5.376-2.016h.032v14.08c0 1.344.352 2.336 1.056 2.976V33h-6.112Zm10.336 0v-.064c.704-.64 1.056-1.632 1.056-2.976v-8.192c0-2.56-1.152-4.288-3.488-4.288-.352 0-.64.128-.832.224v-.032c.768-.864 2.304-1.792 4.096-1.792 2.56 0 4.256 1.856 4.256 5.28v8.8c0 1.344.352 2.336 1.024 2.976V33h-6.112Zm10.368 0v-.064c.704-.64 1.056-1.632 1.056-2.976v-8.192c0-2.464-1.184-4.192-3.584-4.192-.512 0-.96.096-1.344.256V17.8c.992-1.12 2.656-1.92 4.448-1.92 2.816 0 4.512 1.888 4.512 5.312v8.768c0 1.344.352 2.336 1.024 2.976V33h-6.112Zm10.452 0v-.064c.672-.64 1.024-1.632 1.024-2.976v-9.056c0-1.44-.544-2.496-1.376-2.944v-.064l5.376-2.016h.032v14.08c0 1.344.352 2.336 1.056 2.976V33h-6.112Zm10.336 0v-.064c.704-.64 1.056-1.632 1.056-2.976v-8.192c0-2.56-1.152-4.288-3.488-4.288-.352 0-.64.128-.832.224v-.032c.768-.864 2.304-1.792 4.096-1.792 2.56 0 4.256 1.856 4.256 5.28v8.8c0 1.344.352 2.336 1.024 2.976V33h-6.112Zm10.368 0v-.064c.704-.64 1.056-1.632 1.056-2.976v-8.192c0-2.464-1.184-4.192-3.584-4.192-.512 0-.96.096-1.344.256V17.8c.992-1.12 2.656-1.92 4.448-1.92 2.816 0 4.512 1.888 4.512 5.312v8.768c0 1.344.352 2.336 1.024 2.976V33h-6.112Zm15.795 0-6.144-11.744c-1.056-2.016-2.016-3.744-2.816-4.864v-.064h6.4v.064c-.384.864-.192 2.208.576 3.808l4.768 9.984L104.402 33h-1.472Zm5.408-9.12-.064-.032.416-2.432c.384-2.176.032-3.936-.928-5.024v-.064h4.448v.064c-.928 1.152-1.888 2.912-2.784 4.992l-1.088 2.496Zm-12.16 17.344v-3.36h1.28c2.208 0 4.128-.64 5.248-1.568l.032.032c-1.504 2.88-3.2 4.896-6.56 4.896Z"/><path stroke="#B3D5E6" stroke-linecap="round" stroke-width="3" d="M155.444 14.333v9.445a5.555 5.555 0 0 1-5.555 5.555h-23.333A5.555 5.555 0 0 1 121 23.778V9.12a5.555 5.555 0 0 1 5.044-5.532l21.945-2.028c3.256-.301 6.067 2.28 6.067 5.55v0"/><path stroke="#8CBFD9" stroke-linecap="round" stroke-width="3" d="m139.333 24.889-.65-8.785a5.555 5.555 0 0 1 5.767-5.96l15.665.639a5.555 5.555 0 0 1 5.329 5.55v13.782a5.555 5.555 0 0 1-5.029 5.53l-14.057 1.338a5.556 5.556 0 0 1-5.74-3.61l-.465-1.262"/><path fill="#B3D5E6" d="M132.747 27.972h-9.883l2.995 7.274a.471.471 0 0 0 .799.12l6.089-7.394Z"/><path fill="#8CBFD9" d="m146.794 36.35 9.8-.933-2.556 6.39a.467.467 0 0 1-.739.18l-6.505-5.637Z"/></svg>